<!-- icons.svg -->
<svg style="display: none;">
  <defs>
    <symbol id="icon-briefcase" width="16" height="13" viewBox="0 0 16 13" fill="none" xmlns="http://www.w3.org/2000/svg">
        <path d="M14.2786 2.18526H11.1998V0.997384C11.1998 0.488293 10.7876 0.0761719 10.2786 0.0761719H5.64825C5.13916 0.0761719 4.72704 0.488293 4.72704 0.997384V2.18526H1.72098C0.896733 2.18526 0.242188 2.86405 0.242188 3.66405V4.51254L7.12704 7.71254C7.17552 7.25193 7.53916 6.88829 7.99976 6.88829C8.46037 6.88829 8.84825 7.25193 8.87249 7.71254L15.7573 4.51254V3.66405C15.7573 2.86405 15.1028 2.18526 14.2786 2.18526ZM10.7149 2.18526H5.21188V0.997384C5.21188 0.75496 5.40582 0.56102 5.64825 0.56102H10.2786C10.521 0.56102 10.7149 0.75496 10.7149 0.997384V2.18526Z" fill="#4785FF"/>
        <path d="M8.41165 8.82759V7.78517C8.41165 7.56699 8.24195 7.37305 7.99952 7.37305C7.7571 7.37305 7.5874 7.54274 7.5874 7.78517V8.82759C7.5874 9.04577 7.7571 9.23971 7.99952 9.23971C8.24195 9.23971 8.41165 9.04577 8.41165 8.82759Z" fill="#4785FF"/>
        <path d="M8.89673 8.82674C8.89673 9.31159 8.50885 9.72371 7.99976 9.72371C7.49067 9.72371 7.10279 9.33583 7.10279 8.82674V8.24492L0.242188 5.04492V11.4449C0.242188 12.2692 0.896733 12.9237 1.72098 12.9237H14.2786C15.1028 12.9237 15.7573 12.2692 15.7573 11.4449V5.04492L8.89673 8.24492V8.82674Z" fill="#4785FF"/>
    </symbol>
  </defs>
</svg>
